<svg width="28" height="30" viewBox="0 0 28 30" fill="none" xmlns="http://www.w3.org/2000/svg">
<path d="M8.98917 24.2084C9.43982 24.2084 9.83039 23.8178 9.83039 23.3671V14.1438C9.83039 13.6931 9.43982 13.3026 8.98917 13.3026C8.53852 13.3026 8.14795 13.6931 8.14795 14.1438V23.3671C8.14795 23.8478 8.53852 24.2084 8.98917 24.2084Z" fill="#FCFCFC"/>
<path d="M14.0365 24.2084C14.4872 24.2084 14.8778 23.8178 14.8778 23.3671V14.1438C14.8778 13.6931 14.4872 13.3026 14.0365 13.3026C13.5859 13.3026 13.1953 13.6931 13.1953 14.1438V23.3671C13.1953 23.8478 13.5859 24.2084 14.0365 24.2084Z" fill="#FCFCFC"/>
<path d="M19.0839 24.2084C19.5345 24.2084 19.9251 23.8178 19.9251 23.3671V14.1438C19.9251 13.6931 19.5345 13.3026 19.0839 13.3026C18.6332 13.3026 18.2427 13.6931 18.2427 14.1438V23.3671C18.2427 23.8478 18.6032 24.2084 19.0839 24.2084Z" fill="#FCFCFC"/>
<path d="M24.9425 4.07917H18.2427V3.23795C18.2427 1.85595 17.1011 0.714294 15.7191 0.714294H12.3542C10.9722 0.714294 9.83055 1.85595 9.83055 3.23795V4.07917H3.13084C1.74883 4.07917 0.607178 5.22083 0.607178 6.60283V7.44405C0.607178 8.82606 1.74883 9.96771 3.13084 9.96771V26.7621C3.13084 28.1441 4.27249 29.2857 5.6545 29.2857H22.4488C23.8309 29.2857 24.9725 28.1441 24.9725 26.7621V9.93767C26.3545 9.93767 27.4962 8.79601 27.4962 7.41401V6.57279C27.4661 5.19079 26.3245 4.07917 24.9425 4.07917ZM11.513 3.23795C11.513 2.7873 11.9036 2.39673 12.3542 2.39673H15.7191C16.1697 2.39673 16.5603 2.7873 16.5603 3.23795V4.07917H11.513V3.23795ZM23.26 26.732C23.26 27.1827 22.8695 27.5732 22.4188 27.5732H5.6545C5.20384 27.5732 4.81328 27.1827 4.81328 26.732V9.93767H23.2901V26.732H23.26ZM25.7837 7.44405C25.7837 7.89471 25.3931 8.28527 24.9425 8.28527H3.13084C2.68018 8.28527 2.28962 7.89471 2.28962 7.44405V6.60283C2.28962 6.15218 2.68018 5.76161 3.13084 5.76161H24.9425C25.3931 5.76161 25.7837 6.15218 25.7837 6.60283V7.44405Z" fill="#FCFCFC"/>
</svg>